<svg width="147" height="147" viewBox="0 0 147 147" fill="none" xmlns="http://www.w3.org/2000/svg">
<path fill-rule="evenodd" clip-rule="evenodd" d="M30.0352 0C13.4666 0 0.0351562 13.4314 0.0351562 30V59.2129C0.0118427 59.5636 0 59.9174 0 60.274C0 60.6306 0.0118427 60.9844 0.0351562 61.3351V62H0.0934229C0.953077 69.8927 7.63986 76.0353 15.7613 76.0353H21.9121C30.0335 76.0353 36.7203 69.8927 37.5799 62H37.7085V52.6733C37.7085 44.3891 44.4242 37.6733 52.7085 37.6733H93.4422C101.726 37.6733 108.442 44.3891 108.442 52.6733V93.407C108.442 101.691 101.726 108.407 93.4422 108.407H69V108.415C68.8221 108.41 68.6437 108.407 68.4646 108.407C58.0614 108.407 49.6279 116.841 49.6279 127.244C49.6279 137.056 57.1297 145.115 66.7105 146H43.4195C44.3281 146.053 45.2438 146.08 46.1658 146.08H68.3772L68.4646 146.081L68.552 146.08H116.116C132.684 146.08 146.116 132.649 146.116 116.08V30C146.116 13.4315 132.684 0 116.116 0H30.0352ZM18.8367 108.407C8.43347 108.407 0 116.841 0 127.244C0 137.647 8.43347 146.081 18.8367 146.081C29.2399 146.081 37.6734 137.647 37.6734 127.244C37.6734 116.841 29.2399 108.407 18.8367 108.407Z" fill="#FC3532"/>
</svg>
