<svg width="187" height="118" viewBox="0 0 187 118" fill="none" xmlns="http://www.w3.org/2000/svg">
<path d="M0.29541 72.2522V0.681641H20.6596V8.51186H10.0973V64.4501H20.6596V72.2522H0.29541Z" fill="white"/>
<path d="M43.5306 60.7603C40.1319 60.7603 37.09 59.8872 34.4048 58.1409C31.7196 56.3945 29.5977 53.8596 28.0392 50.536C26.4807 47.2123 25.7014 43.1752 25.7014 38.4244C25.7014 33.6174 26.49 29.5615 28.0674 26.2566C29.6634 22.933 31.8135 20.4262 34.5174 18.7362C37.2214 17.0275 40.2352 16.1731 43.5588 16.1731C46.0938 16.1731 48.1781 16.605 49.8117 17.4687C51.4454 18.3137 52.741 19.3371 53.6987 20.5389C54.6563 21.7218 55.398 22.8391 55.9238 23.8907H56.3463V2.31528H66.5707V59.9998H56.5435V53.1836H55.9238C55.398 54.2351 54.6375 55.3524 53.6423 56.5354C52.6471 57.6996 51.3327 58.6948 49.6991 59.521C48.0654 60.3472 46.0093 60.7603 43.5306 60.7603ZM46.3754 52.3949C48.5349 52.3949 50.3751 51.8128 51.896 50.6486C53.417 49.4656 54.5718 47.8226 55.3605 45.7195C56.1491 43.6164 56.5435 41.166 56.5435 38.3681C56.5435 35.5703 56.1491 33.1386 55.3605 31.0731C54.5906 29.0075 53.4452 27.402 51.9242 26.2566C50.422 25.1112 48.5724 24.5385 46.3754 24.5385C44.1034 24.5385 42.2068 25.13 40.6858 26.313C39.1649 27.4959 38.0194 29.1296 37.2496 31.2139C36.4797 33.2982 36.0947 35.6829 36.0947 38.3681C36.0947 41.0721 36.4797 43.485 37.2496 45.6069C38.0382 47.7099 39.193 49.3717 40.714 50.5923C42.2538 51.794 44.1409 52.3949 46.3754 52.3949Z" fill="white"/>
<path d="M96.5889 60.8448C92.2513 60.8448 88.5051 59.9435 85.3505 58.1409C82.2147 56.3194 79.8018 53.7469 78.1118 50.4233C76.4218 47.0809 75.5768 43.147 75.5768 38.6216C75.5768 34.1713 76.4218 30.2656 78.1118 26.9044C79.8205 23.5245 82.2053 20.8956 85.266 19.0179C88.3268 17.1214 91.9227 16.1731 96.0537 16.1731C98.7201 16.1731 101.236 16.605 103.602 17.4687C105.987 18.3137 108.09 19.6282 109.912 21.412C111.752 23.1959 113.198 25.468 114.249 28.2283C115.301 30.9698 115.826 34.2371 115.826 38.0301V41.1566H80.3651V34.284H106.053C106.034 32.3311 105.611 30.5942 104.785 29.0732C103.959 27.5335 102.804 26.3223 101.321 25.4398C99.8562 24.5573 98.1474 24.116 96.1945 24.116C94.1102 24.116 92.2794 24.623 90.7021 25.637C89.1248 26.6322 87.8949 27.9466 87.0123 29.5802C86.1486 31.1951 85.7073 32.9696 85.6885 34.9037V40.9031C85.6885 43.4193 86.1486 45.5787 87.0687 47.3813C87.9888 49.1652 89.275 50.5359 90.9274 51.4936C92.5799 52.4325 94.514 52.9019 96.7297 52.9019C98.2131 52.9019 99.5557 52.6954 100.757 52.2823C101.959 51.8504 103.001 51.2213 103.884 50.3951C104.766 49.5689 105.433 48.5455 105.884 47.325L115.404 48.3953C114.803 50.9115 113.658 53.1085 111.968 54.9862C110.296 56.8452 108.156 58.2911 105.546 59.3238C102.936 60.3378 99.95 60.8448 96.5889 60.8448Z" fill="white"/>
<path d="M161.857 16.7364L146.45 59.9998H135.184L119.777 16.7364H130.649L140.592 48.8741H141.042L151.013 16.7364H161.857Z" fill="white"/>
<path d="M186.151 0.681641V72.2522H165.786V64.4501H176.349V8.51186H165.786V0.681641H186.151Z" fill="white"/>
<path d="M42.3841 100.669V116.512H36.0115V89.4727H42.1024V94.0673H42.4193C43.0413 92.5534 44.033 91.3504 45.3944 90.4585C46.7675 89.5666 48.4633 89.1206 50.4819 89.1206C52.3479 89.1206 53.9733 89.5196 55.3582 90.3177C56.7548 91.1157 57.8345 92.2717 58.5973 93.7856C59.3719 95.2996 59.7533 97.1363 59.7416 99.2957V116.512H53.3689V100.281C53.3689 98.4742 52.8995 97.06 51.9606 96.0389C51.0335 95.0179 49.7484 94.5074 48.1054 94.5074C46.9905 94.5074 45.9988 94.7539 45.1303 95.2468C44.2736 95.7279 43.5988 96.4262 43.1059 97.3416C42.6247 98.257 42.3841 99.3661 42.3841 100.669Z" fill="white"/>
<path d="M78.0144 117.04C75.3739 117.04 73.0853 116.459 71.1489 115.298C69.2125 114.136 67.7103 112.51 66.6423 110.421C65.5861 108.332 65.058 105.891 65.058 103.098C65.058 100.305 65.5861 97.858 66.6423 95.7573C67.7103 93.6565 69.2125 92.0252 71.1489 90.8634C73.0853 89.7015 75.3739 89.1206 78.0144 89.1206C80.655 89.1206 82.9435 89.7015 84.88 90.8634C86.8164 92.0252 88.3127 93.6565 89.369 95.7573C90.4369 97.858 90.9709 100.305 90.9709 103.098C90.9709 105.891 90.4369 108.332 89.369 110.421C88.3127 112.51 86.8164 114.136 84.88 115.298C82.9435 116.459 80.655 117.04 78.0144 117.04ZM78.0496 111.935C79.4814 111.935 80.6785 111.542 81.6408 110.756C82.6032 109.958 83.3191 108.89 83.7885 107.552C84.2697 106.214 84.5103 104.724 84.5103 103.081C84.5103 101.426 84.2697 99.9294 83.7885 98.5915C83.3191 97.2419 82.6032 96.168 81.6408 95.37C80.6785 94.572 79.4814 94.1729 78.0496 94.1729C76.5827 94.1729 75.3621 94.572 74.388 95.37C73.4257 96.168 72.7039 97.2419 72.2227 98.5915C71.7533 99.9294 71.5186 101.426 71.5186 103.081C71.5186 104.724 71.7533 106.214 72.2227 107.552C72.7039 108.89 73.4257 109.958 74.388 110.756C75.3621 111.542 76.5827 111.935 78.0496 111.935Z" fill="white"/>
<path d="M106.414 116.988C104.29 116.988 102.389 116.442 100.71 115.35C99.032 114.259 97.7059 112.675 96.7318 110.597C95.7577 108.52 95.2707 105.997 95.2707 103.028C95.2707 100.023 95.7636 97.4883 96.7494 95.4228C97.747 93.3455 99.0907 91.7788 100.781 90.7226C102.471 89.6546 104.354 89.1206 106.432 89.1206C108.016 89.1206 109.319 89.3905 110.34 89.9304C111.361 90.4585 112.17 91.0981 112.769 91.8492C113.368 92.5886 113.831 93.2869 114.16 93.9441H114.424V80.4595H120.814V116.512H114.547V112.252H114.16C113.831 112.909 113.356 113.608 112.734 114.347C112.112 115.075 111.29 115.697 110.269 116.213C109.248 116.729 107.963 116.988 106.414 116.988ZM108.192 111.759C109.542 111.759 110.692 111.395 111.642 110.668C112.593 109.928 113.315 108.902 113.808 107.587C114.301 106.273 114.547 104.741 114.547 102.992C114.547 101.244 114.301 99.724 113.808 98.4331C113.326 97.1421 112.611 96.1387 111.66 95.4228C110.721 94.7069 109.565 94.349 108.192 94.349C106.772 94.349 105.587 94.7187 104.636 95.458C103.685 96.1974 102.969 97.2184 102.488 98.5211C102.007 99.8238 101.767 101.314 101.767 102.992C101.767 104.682 102.007 106.191 102.488 107.517C102.981 108.831 103.703 109.87 104.654 110.633C105.616 111.384 106.795 111.759 108.192 111.759Z" fill="white"/>
<path d="M139.575 117.04C136.864 117.04 134.523 116.477 132.551 115.35C130.592 114.212 129.083 112.604 128.027 110.527C126.971 108.438 126.443 105.979 126.443 103.151C126.443 100.37 126.971 97.9284 128.027 95.8277C129.095 93.7152 130.586 92.0722 132.499 90.8986C134.412 89.7133 136.659 89.1206 139.241 89.1206C140.907 89.1206 142.48 89.3905 143.959 89.9304C145.449 90.4585 146.764 91.28 147.902 92.3949C149.052 93.5098 149.956 94.9299 150.613 96.6551C151.27 98.3685 151.599 100.411 151.599 102.781V104.735H129.436V100.44H145.49C145.479 99.2194 145.214 98.1338 144.698 97.1832C144.182 96.2209 143.46 95.4639 142.533 94.9123C141.617 94.3607 140.549 94.0849 139.329 94.0849C138.026 94.0849 136.882 94.4018 135.896 95.0355C134.91 95.6575 134.142 96.479 133.59 97.5001C133.05 98.5094 132.774 99.6184 132.763 100.827V104.577C132.763 106.149 133.05 107.499 133.625 108.626C134.2 109.741 135.004 110.597 136.037 111.196C137.07 111.783 138.279 112.076 139.663 112.076C140.591 112.076 141.43 111.947 142.181 111.689C142.932 111.419 143.583 111.026 144.135 110.509C144.686 109.993 145.103 109.353 145.385 108.591L151.335 109.259C150.959 110.832 150.243 112.205 149.187 113.379C148.143 114.541 146.805 115.444 145.173 116.09C143.542 116.724 141.676 117.04 139.575 117.04Z" fill="white"/>
</svg>
